<mxfile host="app.diagrams.net" modified="2022-09-16T04:34:43.235Z" agent="5.0 (Windows NT 10.0; WOW64) AppleWebKit/537.36 (KHTML, like Gecko) Chrome/94.0.4606.71 Safari/537.36 Core/1.94.175.400 QQBrowser/11.1.5155.400" etag="qjZWPN_gEn73Sr5Jwz-S" version="20.3.1" type="github">
  <diagram id="tIcguxU_F6mSRtD10ndp" name="第 1 页">
    <mxGraphModel dx="824" dy="457" grid="1" gridSize="10" guides="1" tooltips="1" connect="1" arrows="1" fold="1" page="1" pageScale="1" pageWidth="827" pageHeight="1169" math="0" shadow="0">
      <root>
        <mxCell id="0" />
        <mxCell id="1" parent="0" />
        <mxCell id="gTqhmHZ_5VVeFjacaqhZ-1" value="" style="rounded=1;whiteSpace=wrap;html=1;" vertex="1" parent="1">
          <mxGeometry x="350" y="210" width="120" height="60" as="geometry" />
        </mxCell>
        <mxCell id="gTqhmHZ_5VVeFjacaqhZ-2" value="" style="ellipse;whiteSpace=wrap;html=1;" vertex="1" parent="1">
          <mxGeometry x="350" y="200" width="120" height="80" as="geometry" />
        </mxCell>
        <mxCell id="gTqhmHZ_5VVeFjacaqhZ-3" value="" style="rhombus;whiteSpace=wrap;html=1;" vertex="1" parent="1">
          <mxGeometry x="370" y="200" width="80" height="80" as="geometry" />
        </mxCell>
        <mxCell id="gTqhmHZ_5VVeFjacaqhZ-4" value="" style="ellipse;shape=cloud;whiteSpace=wrap;html=1;" vertex="1" parent="1">
          <mxGeometry x="350" y="600" width="120" height="80" as="geometry" />
        </mxCell>
      </root>
    </mxGraphModel>
  </diagram>
</mxfile>
